<?xml version="1.0" encoding="utf-8"?>
<!-- Svg Vector Icons : http://www.onlinewebfonts.com/icon -->
<!DOCTYPE svg PUBLIC "-//W3C//DTD SVG 1.1//EN" "http://www.w3.org/Graphics/SVG/1.1/DTD/svg11.dtd">
<svg version="1.1" xmlns="http://www.w3.org/2000/svg" xmlns:xlink="http://www.w3.org/1999/xlink" x="0px" y="0px" viewBox="0 0 1000 1000" enable-background="new 0 0 1000 1000" xml:space="preserve">
<metadata> Svg Vector Icons : http://www.onlinewebfonts.com/icon </metadata>
<g><g transform="translate(0.000000,511.000000) scale(0.100000,-0.100000)"><path d="M3133.5,4974.1C1769,4713.3,753.2,3764.2,392.3,2408.8c-87.9-330.5-109.2-1046.1-42.4-1403.9C543.9-20,1144.3-860,2051-1381.5c121.3-66.7,360.8-172.9,533.7-236.5l315.4-115.2l21.2-175.9c54.6-436.6,272.9-985.5,561-1419.1c188-282,600.4-694.4,882.4-882.4c309.3-206.2,742.9-406.3,1088.6-497.3c263.8-69.7,357.8-78.8,812.6-81.9c585.2-3,815.7,36.4,1273.6,215.3c1037.1,406.3,1773.9,1243.2,2083.2,2365.2c57.6,203.2,66.7,315.3,66.7,812.6c0,497.3-9.1,609.5-66.7,812.6C9446.7,58.8,9173.8,537.9,8737.2,983.6c-409.4,418.4-767.2,648.9-1306.9,843l-312.4,112.2l-36.4,227.4c-106.1,685.3-451.8,1349.4-964.3,1861.8c-418.5,418.5-979.4,736.9-1555.6,888.5C4191.8,5010.5,3488.3,5040.8,3133.5,4974.1z M4413.1,4109.9c955.2-285,1664.7-1049.2,1852.7-1995.3l21.2-100.1h-166.8c-369.9,0-967.3-157.7-1367.6-363.9C3855.2,1189.8,3209.3,371.1,2975.8-593.2c-30.3-139.5-63.7-257.7-72.8-266.8c-30.3-27.3-576.1,257.7-767.2,400.3c-476.1,360.8-839.9,937-967.3,1528.3c-54.6,266.8-54.6,797.5,3,1067.4c106.1,500.3,342.6,930.9,712.6,1303.9c360.8,357.8,803.6,603.4,1288.7,709.5C3476.2,4216,4128.1,4194.8,4413.1,4109.9z M6265.9,1098.9c-118.2-594.3-467-1161.4-937-1531.3c-391.2-306.3-909.7-512.4-1373.7-545.8c-251.7-21.2-242.6-30.3-172.8,245.6c69.7,272.9,288.1,703.5,485.2,955.2c436.6,557.9,1191.7,952.1,1855.8,970.3l163.8,3L6265.9,1098.9z M7497,904.8C8194.4,547,8685.6-105,8846.3-887.3c66.7-318.4,42.5-903.6-48.5-1222c-248.7-864.2-964.3-1564.6-1849.7-1807.2c-285-78.9-1027.9-78.9-1303.9,0c-979.4,282-1704.2,1052.2-1895.2,2013.4l-21.2,97h151.6c382.1,0,934,145.5,1355.4,354.8c369.9,185,621.6,366.9,912.7,661c476,482.1,773.2,1049.2,933.9,1783C7105.8,1095.8,7130.1,1092.8,7497,904.8z"/></g></g>
</svg>